<svg width="178" height="11" viewBox="0 0 178 11" fill="none" xmlns="http://www.w3.org/2000/svg">
<path d="M0.0640001 0.661999H1.884V10H0.0640001V0.661999ZM10.7912 7.536V9.664C10.1005 10.028 9.33051 10.21 8.48117 10.21C7.11851 10.21 5.97984 9.776 5.06517 8.908C4.06651 7.94667 3.56717 6.75667 3.56717 5.338C3.56717 3.826 4.06651 2.608 5.06517 1.684C5.94251 0.862666 7.08584 0.451999 8.49517 0.451999C9.31651 0.451999 10.0818 0.643333 10.7912 1.026V3.154C10.1845 2.454 9.43317 2.104 8.53717 2.104C7.62251 2.104 6.87584 2.426 6.29717 3.07C5.72784 3.70467 5.44317 4.47 5.44317 5.366C5.44317 6.346 5.76051 7.12533 6.39517 7.704C7.02984 8.27333 7.76717 8.558 8.60717 8.558C9.48451 8.558 10.2125 8.21733 10.7912 7.536ZM17.16 0.661999L16.838 4.414H15.578L15.256 0.661999H17.16ZM19.68 0.661999L19.358 4.414H18.098L17.776 0.661999H19.68ZM21.3374 0.661999H24.0394C25.0661 0.661999 25.8594 0.895333 26.4194 1.362C27.0354 1.88467 27.3434 2.58467 27.3434 3.462C27.3434 4.43267 26.9794 5.16533 26.2514 5.66C25.9714 5.856 25.6308 5.99133 25.2294 6.066L28.1414 10H25.8734L23.3814 6.248H23.1574V10H21.3374V0.661999ZM23.1574 2.146V4.96H23.6754C23.8248 4.96 23.9694 4.95067 24.1094 4.932C24.2588 4.904 24.4501 4.85267 24.6834 4.778C24.9168 4.694 25.1034 4.54933 25.2434 4.344C25.3928 4.12933 25.4674 3.86333 25.4674 3.546C25.4674 3.22867 25.3974 2.96733 25.2574 2.762C25.1174 2.54733 24.9308 2.40267 24.6974 2.328C24.4641 2.244 24.2774 2.19267 24.1374 2.174C23.9974 2.15533 23.8528 2.146 23.7034 2.146H23.1574ZM34.5565 0.661999V2.23H31.1965V4.316H34.4165V5.884H31.1965V8.432H34.5565V10H29.3765V0.661999H34.5565ZM36.3218 0.661999H39.0378C39.6165 0.661999 40.0878 0.713333 40.4518 0.816C40.8251 0.909333 41.1751 1.096 41.5018 1.376C42.1365 1.936 42.4538 2.68733 42.4538 3.63C42.4538 4.50733 42.1971 5.20267 41.6838 5.716C41.1331 6.26667 40.3445 6.542 39.3178 6.542H38.1418V10H36.3218V0.661999ZM38.1418 2.23V4.974H38.8838C39.4158 4.974 39.8125 4.876 40.0738 4.68C40.4098 4.41867 40.5778 4.05467 40.5778 3.588C40.5778 3.13067 40.4051 2.776 40.0598 2.524C39.7798 2.328 39.3505 2.23 38.7718 2.23H38.1418ZM49.3223 10L48.4963 8.04H44.7303L43.9043 10H41.9303L45.9763 0.465999H47.3483L51.2823 10H49.3223ZM45.3043 6.556H47.9643L46.6483 3.196L45.3043 6.556ZM52.3726 0.661999H54.1926V10H52.3726V0.661999ZM56.3238 0.661999H59.0258C60.0524 0.661999 60.8458 0.895333 61.4058 1.362C62.0218 1.88467 62.3298 2.58467 62.3298 3.462C62.3298 4.43267 61.9658 5.16533 61.2378 5.66C60.9578 5.856 60.6171 5.99133 60.2158 6.066L63.1278 10H60.8598L58.3678 6.248H58.1438V10H56.3238V0.661999ZM58.1438 2.146V4.96H58.6618C58.8111 4.96 58.9558 4.95067 59.0958 4.932C59.2451 4.904 59.4364 4.85267 59.6698 4.778C59.9031 4.694 60.0898 4.54933 60.2298 4.344C60.3791 4.12933 60.4538 3.86333 60.4538 3.546C60.4538 3.22867 60.3838 2.96733 60.2438 2.762C60.1038 2.54733 59.9171 2.40267 59.6838 2.328C59.4504 2.244 59.2638 2.19267 59.1238 2.174C58.9838 2.15533 58.8391 2.146 58.6898 2.146H58.1438ZM67.6304 0.661999H70.0664C70.8037 0.661999 71.4477 0.727333 71.9984 0.857999C72.5491 0.979333 73.0624 1.21733 73.5384 1.572C74.1077 2.00133 74.5464 2.54267 74.8544 3.196C75.1717 3.84933 75.3304 4.56333 75.3304 5.338C75.3304 6.97133 74.7051 8.22667 73.4544 9.104C72.9504 9.45867 72.4371 9.69667 71.9144 9.818C71.3917 9.93933 70.7664 10 70.0384 10H67.6304V0.661999ZM69.4504 2.23V8.432H70.0104C70.9624 8.432 71.7231 8.22667 72.2924 7.816C72.6564 7.55467 72.9411 7.20467 73.1464 6.766C73.3517 6.318 73.4544 5.842 73.4544 5.338C73.4544 4.84333 73.3517 4.37667 73.1464 3.938C72.9504 3.49 72.6704 3.126 72.3064 2.846C71.7557 2.43533 70.9904 2.23 70.0104 2.23H69.4504ZM82.1893 0.661999V2.23H78.8293V4.316H82.0493V5.884H78.8293V8.432H82.1893V10H77.0093V0.661999H82.1893ZM89.4986 1.544L88.5466 2.79C88.1453 2.258 87.6366 1.992 87.0206 1.992C86.5726 1.992 86.246 2.104 86.0406 2.328C85.8353 2.54267 85.7326 2.79467 85.7326 3.084C85.7326 3.336 85.8306 3.546 86.0266 3.714C86.176 3.854 86.5493 4.03133 87.1466 4.246C88.0706 4.56333 88.7006 4.876 89.0366 5.184C89.5686 5.66 89.8346 6.31333 89.8346 7.144C89.8346 8.05867 89.5313 8.80067 88.9246 9.37C88.3273 9.93 87.548 10.21 86.5866 10.21C85.2426 10.21 84.1693 9.622 83.3666 8.446L84.5566 7.312C84.762 7.732 85.0466 8.04467 85.4106 8.25C85.7746 8.45533 86.1433 8.558 86.5166 8.558C86.9366 8.558 87.282 8.44133 87.5526 8.208C87.8233 7.96533 87.9586 7.65267 87.9586 7.27C87.9586 6.94333 87.8373 6.66333 87.5946 6.43C87.3706 6.22467 86.89 5.996 86.1526 5.744C85.462 5.51067 84.944 5.24 84.5986 4.932C84.104 4.50267 83.8566 3.924 83.8566 3.196C83.8566 2.44 84.1133 1.796 84.6266 1.264C85.14 0.722666 85.882 0.451999 86.8526 0.451999C87.9073 0.451999 88.7893 0.815999 89.4986 1.544ZM91.4331 0.661999H93.2531V10H91.4331V0.661999ZM100.116 6.57V5.002H104.4V5.24C104.4 6.51867 104.116 7.56867 103.546 8.39C102.706 9.60333 101.47 10.21 99.8363 10.21C98.3896 10.21 97.209 9.762 96.2943 8.866C95.389 7.96067 94.9363 6.78467 94.9363 5.338C94.9363 3.89133 95.3983 2.71533 96.3223 1.81C97.2556 0.904666 98.4456 0.451999 99.8923 0.451999C100.508 0.451999 101.068 0.535999 101.572 0.704C102.076 0.872 102.487 1.096 102.804 1.376C103.122 1.656 103.355 1.88933 103.504 2.076C103.654 2.25333 103.784 2.44467 103.896 2.65L102.314 3.504C102.24 3.38267 102.151 3.26133 102.048 3.14C101.955 3.00933 101.81 2.86 101.614 2.692C101.418 2.51467 101.166 2.37467 100.858 2.272C100.56 2.16 100.233 2.104 99.8783 2.104C98.973 2.104 98.2356 2.42133 97.6663 3.056C97.097 3.68133 96.8123 4.45133 96.8123 5.366C96.8123 6.19667 97.069 6.93867 97.5823 7.592C98.0956 8.236 98.8563 8.558 99.8643 8.558C100.564 8.558 101.157 8.39467 101.642 8.068C102.137 7.74133 102.431 7.242 102.524 6.57H100.116ZM107.896 10H106.076V0.451999H107.336L113.02 6.948V0.661999H114.84V10.182H113.58L107.896 3.686V10ZM120.24 0.661999H122.956C123.534 0.661999 124.006 0.713333 124.37 0.816C124.743 0.909333 125.093 1.096 125.42 1.376C126.054 1.936 126.372 2.68733 126.372 3.63C126.372 4.50733 126.115 5.20267 125.602 5.716C125.051 6.26667 124.262 6.542 123.236 6.542H122.06V10H120.24V0.661999ZM122.06 2.23V4.974H122.802C123.334 4.974 123.73 4.876 123.992 4.68C124.328 4.41867 124.496 4.05467 124.496 3.588C124.496 3.13067 124.323 2.776 123.978 2.524C123.698 2.328 123.268 2.23 122.69 2.23H122.06ZM127.718 0.661999H130.42C131.447 0.661999 132.24 0.895333 132.8 1.362C133.416 1.88467 133.724 2.58467 133.724 3.462C133.724 4.43267 133.36 5.16533 132.632 5.66C132.352 5.856 132.012 5.99133 131.61 6.066L134.522 10H132.254L129.762 6.248H129.538V10H127.718V0.661999ZM129.538 2.146V4.96H130.056C130.206 4.96 130.35 4.95067 130.49 4.932C130.64 4.904 130.831 4.85267 131.064 4.778C131.298 4.694 131.484 4.54933 131.624 4.344C131.774 4.12933 131.848 3.86333 131.848 3.546C131.848 3.22867 131.778 2.96733 131.638 2.762C131.498 2.54733 131.312 2.40267 131.078 2.328C130.845 2.244 130.658 2.19267 130.518 2.174C130.378 2.15533 130.234 2.146 130.084 2.146H129.538ZM136.695 1.824C137.629 0.909333 138.828 0.451999 140.293 0.451999C141.759 0.451999 142.953 0.909333 143.877 1.824C144.811 2.73867 145.277 3.91 145.277 5.338C145.277 6.766 144.811 7.93733 143.877 8.852C142.953 9.75733 141.759 10.21 140.293 10.21C138.828 10.21 137.629 9.75733 136.695 8.852C135.771 7.93733 135.309 6.766 135.309 5.338C135.309 3.91 135.771 2.73867 136.695 1.824ZM138.053 7.662C138.632 8.25933 139.379 8.558 140.293 8.558C141.208 8.558 141.955 8.25933 142.533 7.662C143.112 7.05533 143.401 6.28067 143.401 5.338C143.401 4.39533 143.107 3.62067 142.519 3.014C141.941 2.40733 141.199 2.104 140.293 2.104C139.388 2.104 138.641 2.40733 138.053 3.014C137.475 3.62067 137.185 4.39533 137.185 5.338C137.185 6.28067 137.475 7.05533 138.053 7.662ZM148.467 0.661999H150.287V6.962C150.287 8.35267 149.923 9.29533 149.195 9.79C148.765 10.07 148.257 10.21 147.669 10.21C146.847 10.21 146.133 9.92067 145.527 9.342L146.633 8.012C146.866 8.348 147.169 8.516 147.543 8.516C147.879 8.516 148.117 8.40867 148.257 8.194C148.397 7.98867 148.467 7.48467 148.467 6.682V0.661999ZM157.59 0.661999V2.23H154.23V4.316H157.45V5.884H154.23V8.432H157.59V10H152.41V0.661999H157.59ZM166.131 7.536V9.664C165.44 10.028 164.67 10.21 163.821 10.21C162.458 10.21 161.32 9.776 160.405 8.908C159.406 7.94667 158.907 6.75667 158.907 5.338C158.907 3.826 159.406 2.608 160.405 1.684C161.282 0.862666 162.426 0.451999 163.835 0.451999C164.656 0.451999 165.422 0.643333 166.131 1.026V3.154C165.524 2.454 164.773 2.104 163.877 2.104C162.962 2.104 162.216 2.426 161.637 3.07C161.068 3.70467 160.783 4.47 160.783 5.366C160.783 6.346 161.1 7.12533 161.735 7.704C162.37 8.27333 163.107 8.558 163.947 8.558C164.824 8.558 165.552 8.21733 166.131 7.536ZM172.844 2.23H170.744V10H168.924V2.23H166.824V0.661999H172.844V2.23ZM175.426 0.661999L175.104 4.414H173.844L173.522 0.661999H175.426ZM177.946 0.661999L177.624 4.414H176.364L176.042 0.661999H177.946Z" fill="#E3B873"/>
</svg>
